<?xml version="1.0" encoding="utf-8"?>
<!-- Generator: Adobe Illustrator 25.4.1, SVG Export Plug-In . SVG Version: 6.00 Build 0)  -->
<svg version="1.1" id="Слой_1" xmlns="http://www.w3.org/2000/svg" xmlns:xlink="http://www.w3.org/1999/xlink" x="0px" y="0px"
	 viewBox="0 0 1000 1000" style="enable-background:new 0 0 1000 1000;" xml:space="preserve">
<g>
	<path d="M437.43,222.94l-9.57-0.72c-2.24-0.17-3.95-2.02-3.95-4.24v-66.34c0-2.35,1.9-4.25,4.25-4.25H572.3
		c2.35,0,4.25,1.91,4.25,4.26c0.02,21.87,0.13,43.48-0.28,65.08c-0.04,2-3.66,4.94-6.15,5.67c-1.86,0.55-3.84,0.69-6.13,0.74
		c-3.4,0.07-5.37,3.85-3.46,6.66c0.87,1.28,1.69,2.44,2.56,3.57c27.89,36.4,56.06,72.59,83.48,109.35
		c4.19,5.62,6.72,13.78,6.94,20.85c0.8,26.4-0.1,52.84,0.46,79.25c0.4,19.02-2.92,36.34-16.92,50.69c-1.6,1.64-1.63,4.24-0.05,5.9
		c9.77,10.24,16.93,21.48,17.22,36.11c0.29,14.44-5.37,26.25-15.3,36.95c-1.48,1.59-1.5,4.06-0.05,5.68
		c9.48,10.61,15.77,22.48,15.25,37.21c-0.51,14.25-6.83,25.59-17.09,35.9c-1.67,1.68-1.63,4.37,0.05,6.03
		c16.69,16.45,17.41,37.68,16.87,59.55c-0.54,21.64,0.05,43.3-0.16,64.95c-0.34,35.7-23.19,58.32-58.76,58.46
		c-8.81,0.03-17.61,0.06-26.42,0c-13.49-0.1-25.97,1.89-39.21,6.8c-21.16,7.84-43.84,7.84-65.27-2.63
		c-5.19-2.54-10.89-3.88-16.67-4.03c-13.89-0.35-27.79-0.01-41.69-0.15c-32.83-0.32-59.43-26.83-59.7-59.66
		c-0.2-23.93,0.49-47.89-0.22-71.8c-0.58-19.46,2.82-36.99,17.48-51.33c1.69-1.65,1.73-4.35,0.07-6.03
		c-10.1-10.22-16.52-21.87-16.77-36.32c-0.24-14.32,5.59-26.12,15.3-36.87c1.46-1.62,1.45-4.1-0.04-5.7
		c-9.73-10.48-15.88-22.45-15.38-37.11c0.48-14.08,6.6-25.53,16.78-35.81c1.68-1.7,1.62-4.43-0.11-6.08
		c-17.16-16.35-17.86-37.57-17.3-59.51c0.62-24.2-0.26-48.45,0.42-72.65c0.17-6.04,2.46-13.02,6.1-17.8
		c28-36.78,56.58-73.11,84.97-109.6c1.04-1.34,2.05-2.71,3.19-4.28C442.5,226.98,440.74,223.19,437.43,222.94z M582.35,663.93
		c-2.17,0.02-4-1.63-4.25-3.78c-1.96-17.32-0.85-17.32,16.57-17.34c2.93,0,5.87,0.05,8.8-0.05c18.14-0.6,29.91-11.82,29.75-28.29
		c-0.17-16.47-12.1-27.45-30.29-27.73c-6.93-0.11-13.85-0.05-20.61-0.03c-2.17,0.01-4-1.64-4.23-3.81
		c-1.88-17.34-0.76-17.34,16.63-17.36c3.67,0,7.34,0.08,11-0.11c16.4-0.82,27.66-12.43,27.49-28.23
		c-0.17-15.75-11.62-27.1-28.14-27.56c-7.34-0.21-14.7-0.1-22.36-0.06c-2.35,0.01-4.28-1.9-4.28-4.26v-12.76
		c0-2.35,1.92-4.26,4.28-4.25c4.98,0.01,9.53,0.04,14.08-0.02c22.31-0.27,35.49-13.2,35.76-35.56c0.25-21.27,0.06-42.55,0.07-63.83
		c0-5.86,0-11.72,0-17.87c0-2.35-1.9-4.26-4.25-4.26H371.37c-1.88,0-3.67,1.2-4.08,3.04c-0.04,0.17-0.06,0.34-0.06,0.52
		c-0.04,28.97-0.7,57.96,0.28,86.9c0.61,18.01,15.33,30.67,33.73,30.97c20.54,0.34,41.08,0.1,61.62,0.11c14.31,0.01,28.62,0,43.42,0
		c2.35,0,4.27,1.9,4.27,4.25v12.73c0,2.35-1.91,4.25-4.26,4.25c-3,0-5.72,0-8.45,0c-32.65,0-65.29-0.08-97.94,0.1
		c-5.04,0.03-10.4,0.42-15.03,2.18c-12.57,4.8-19.11,17.69-16.75,31.25c2.15,12.3,12.98,22.08,26.4,22.23
		c34.48,0.39,68.96,0.2,103.44,0.24c2.78,0,5.55,0,8.33,0c2.35,0,4.26,1.9,4.26,4.25v12.64c0,2.35-1.91,4.25-4.26,4.25
		c-2.99,0-5.72,0-8.45,0c-33.75,0.01-67.5-0.17-101.24,0.11c-18.44,0.16-30.36,13.54-28.71,31.28
		c1.36,14.54,12.99,24.49,29.92,24.62c33.38,0.26,66.76,0.07,100.14,0.14c2.88,0.01,5.75,0.2,8.62,0.39c2.24,0.15,3.97,2,3.97,4.25
		v12.17c0,2.35-1.91,4.25-4.26,4.25c-3.01,0-5.75,0-8.48,0c-32.28,0.01-64.56-0.19-96.84,0.11c-18.41,0.17-32.97,12.33-33.47,29.73
		c-0.9,31.51-0.69,63.08-0.03,94.6c0.3,14.24,8.94,25.55,22.18,28.4c14.04,3.02,28.82,2.53,43.73,3.07c2.64,0.1,4.71-2.25,4.34-4.86
		c-0.71-4.97-1.32-9.21-1.92-13.4c-0.37-2.56,1.62-4.86,4.21-4.86h11.42c1.87,0,3.53,1.22,4.07,3.01
		c7.1,23.98,17.06,30.8,43.09,30.81c5.49,0,11.02-0.01,16.48-0.56c13.81-1.39,22.85-9.37,27.9-21.83
		c5.05-12.47,5.56-13.76,19.04-11.27c2.28,0.42,3.82,2.59,3.44,4.87c-0.67,4.12-1.36,8.28-2.06,12.57c-0.4,2.44,1.35,4.9,3.83,4.94
		c0.01,0,0.03,0,0.04,0c11.37,0.05,22.77,0.5,34.1-0.18c17.91-1.08,30.76-14.19,31.04-32.29c0.45-28.73,0.46-57.48,0.1-86.21
		c-0.26-20.18-16.6-36.47-36.78-36.68C591.35,663.83,586.93,663.9,582.35,663.93z M387.84,343.91h225.37c3.53,0,5.51-4.06,3.36-6.86
		c-28.96-37.68-56.9-74.17-85.2-110.37c-1.99-2.54-7-3.67-10.66-3.8c-13.19-0.44-26.46-0.86-39.58,0.17
		c-5,0.39-11.02,3.59-14.27,7.45c-11.58,13.71-22.19,28.25-33.14,42.5c-16.16,21.01-32.31,42.03-49.24,64.06
		C382.33,339.85,384.32,343.91,387.84,343.91z M550.77,168.09H449.5c-2.35,0-4.25,1.9-4.25,4.25v24.27c0,2.35,1.9,4.25,4.25,4.25
		h101.27c2.35,0,4.25-1.9,4.25-4.25v-24.27C555.02,169.99,553.12,168.09,550.77,168.09z"/>
	<path d="M554.82,491.76v13.61c0,1.92-1.56,3.48-3.48,3.48h-14.5c-1.93,0-3.46-1.58-3.46-3.51c0-6.03-0.75-12.63,2.04-14.92
		c3.49-2.86,9.9-2.14,15.91-2.13C553.25,488.29,554.82,489.84,554.82,491.76z"/>
	<path d="M534.78,585.93c-3.73-20.63-2.16-22.19,19.73-19.37c0,6.08,0,12.32,0,19.37C548.11,585.93,541.78,585.93,534.78,585.93z"/>
	<path d="M554.89,646.21v14.53c0,1.36-1.1,2.45-2.45,2.45H536.7c-1.36,0-2.45-1.1-2.45-2.45v-14.53c0-1.36,1.1-2.45,2.45-2.45h15.74
		C553.79,643.75,554.89,644.85,554.89,646.21z"/>
	<path d="M445.64,294.5v-10.34c0-2.4,1.95-4.35,4.35-4.35h12.2c2.4,0,4.35,1.95,4.35,4.35v10.34c0,2.4-1.95,4.35-4.35,4.35h-12.2
		C447.58,298.84,445.64,296.9,445.64,294.5z"/>
	<path d="M440.07,321.25h-11.64c-2.4,0-4.35-1.95-4.35-4.35V305.9c0-2.4,1.95-4.35,4.35-4.35h11.64c2.4,0,4.35,1.95,4.35,4.35v11.01
		C444.41,319.31,442.47,321.25,440.07,321.25z"/>
</g>
</svg>
