<?xml version="1.0" encoding="utf-8"?>
<!-- Generator: Adobe Illustrator 25.4.1, SVG Export Plug-In . SVG Version: 6.00 Build 0)  -->
<svg version="1.1" id="Слой_1" xmlns="http://www.w3.org/2000/svg" xmlns:xlink="http://www.w3.org/1999/xlink" x="0px" y="0px"
	 viewBox="0 0 1000 1000" style="enable-background:new 0 0 1000 1000;" xml:space="preserve">
<g>
	<path d="M292.8,347.63c-10.28-16.84-20.11-32.77-29.72-48.82c-2.03-3.39-3.27-7.25-4.8-10.93c-3.27-7.9-4.76-15.85,3.82-21.24
		c8.73-5.48,14.95-0.5,20.41,6.24c11.5,14.18,27.15,17.86,43.17,12.16c32.92-11.71,65.89-21.8,104.17-19.09
		c-5.92-10.49-10.67-18.42-14.94-26.6c-5.67-10.86-12.26-21.51-15.97-33.04c-2.66-8.25-2.78-18.07-1.33-26.74
		c3.65-21.87,23.6-34.05,43.85-25.01c13.05,5.83,26.72,14.93,34.76,26.34c17.21,24.42,31.51,50.99,45.8,77.33
		c4.61,8.49,8.77,11.33,18.38,9.83c37.62-5.89,74.39-2.34,109.92,12.04c5.68,2.3,11.56,4.31,17.52,5.7
		c16.6,3.87,30.9-0.04,41.82-13.69c5.31-6.63,11.55-10.55,19.67-5.45c8.05,5.06,8.04,13.03,3.87,20.13
		c-10.55,17.95-21.89,35.43-33.68,54.33c1.24,1.06,4.17,3.58,7.13,6.07c78.62,66.16,117,149.41,103.29,252.65
		c-10.66,80.28-53.54,141.99-118.53,188.78c-120.37,86.64-294.95,78.32-406.75-19.02c-129.86-113.06-129.73-300.46,0.28-415.01
		C287.87,351.98,290.8,349.39,292.8,347.63z M399.35,388.58c-2.16-0.86-3.1-1.57-4.03-1.57c-26.67,0.18-51.66-5.66-74.73-19.57
		c-2.31-1.39-7.82-0.26-10.24,1.69c-49.77,40.31-83.11,91.26-92.37,155.02c-14.51,99.93,23.22,179.9,102.86,238.54
		c112.99,83.19,266.53,77.78,373.9-11.97c128.05-107.03,119.4-290.57-14.97-389.45c-3.14-2.31-9.26-2.36-13.38-1.23
		c-10.76,2.95-20.94,8.2-31.79,10.56c-12.17,2.65-24.82,3.13-38.77,4.73c2.56,3.99,4.57,7.22,6.67,10.39
		c13.96,21.06,21.33,44.42,22.29,69.45c0.2,5.26-3.87,13.06-8.25,15.38c-3.68,1.95-12.34-0.71-15.9-4.25
		c-12.15-12.07-26.58-17.24-43.06-17.85c-20.67-0.76-38.84-8.26-55.2-20.3c-5.01-3.69-7.67-3.2-12.89,0.27
		c-15.89,10.58-31.81,21.78-49.24,29.17c-18.41,7.8-35.33,16.46-48.33,31.88c-4.84,5.74-11.6,9.91-17.9,4.89
		c-4.17-3.32-7.32-10.74-7.16-16.21c0.84-28.53,10.46-54.52,25.62-78.55C394.71,396.08,396.9,392.52,399.35,388.58z M680.38,316.43
		c-11.34-2.67-21.4-3.56-30.19-7.38c-36.02-15.66-73.11-19.04-111.74-13.61c-26.65,3.75-28.76,1.41-39.67-23.69
		c-12.17-28-26.06-55.1-46.87-77.87c-4.78-5.23-10.78-9.76-17.01-13.15c-5.96-3.24-11.66-0.64-10.72,6.74
		c1.12,8.75,2.94,17.95,6.91,25.69c9.73,19,21.48,36.98,31.26,55.96c8.45,16.39,15.45,33.54,22.83,50.47
		c3.52,8.08,2.14,15.53-6.43,19.14c-8.46,3.57-14.7-0.53-18.54-8.44c-1.42-2.93-2.58-5.98-3.86-8.98
		c-12.53-29.21-12.56-27.87-44.98-28.66c-37.26-0.91-68.43,22.03-105.32,23.04c14.77,23.24,44.41,41.98,71.05,42.7
		c17.18,0.46,34.43-3.22,51.7-3.9c5.41-0.21,12.86,1.8,15.87,5.58c2.54,3.19,0.94,10.7-0.57,15.77c-1.16,3.88-5.23,6.81-7.67,10.4
		c-10.34,15.25-20.68,30.51-30.71,45.97c-1.89,2.92-2.39,6.74-3.53,10.14c0.83,0.71,1.66,1.42,2.49,2.13
		c19.32-9.7,38.93-18.85,57.83-29.31c9.44-5.23,16.98-12.8,20.64-24.2c1.42-4.43,8.69-9.83,13.08-9.65
		c4.36,0.18,8.83,6.5,12.57,10.72c4.63,5.22,7.59,12.33,12.95,16.42c20.38,15.54,45.75,11.69,70.92,18.45
		c-3.82-8.36-5.57-14.95-9.38-19.99c-10.24-13.53-21.35-26.39-32.13-39.51c-5.16-6.28-10.7-12.58-5.09-21.26
		c5.14-7.96,12.45-5.86,20.36-5.01c19.31,2.08,38.9,4.73,58.13,3.43C645.87,343.16,664.29,332.63,680.38,316.43z"/>
	<path d="M485.63,793.73c-84.74-6.68-156.11-42.05-204.87-116.99c-21.61-33.22-32.31-70.17-33.29-109.84
		c-0.28-11.43,4.2-17.58,12.75-17.98c8.48-0.4,13.9,5.51,14.23,16.72c3.16,107.07,91.58,184.81,190.39,198.06
		c10.39,1.39,20.91,1.9,31.37,2.69c11.36,0.86,17.36,5.62,17.28,13.95c-0.08,8.71-6.79,13.53-18.63,13.38
		C492.7,793.7,490.52,793.73,485.63,793.73z"/>
	<path d="M569.72,773.95c-0.82,8.21-5.06,12.96-13.07,13.48c-7.62,0.49-13.75-5.97-13.25-13.78c0.53-8.13,5.16-12.54,13.28-12.48
		C565.05,761.23,568.63,766.59,569.72,773.95z"/>
</g>
</svg>
