<?xml version="1.0" encoding="utf-8"?>
<!-- Generator: Adobe Illustrator 25.4.1, SVG Export Plug-In . SVG Version: 6.00 Build 0)  -->
<svg version="1.1" id="Слой_1" xmlns="http://www.w3.org/2000/svg" xmlns:xlink="http://www.w3.org/1999/xlink" x="0px" y="0px"
	 viewBox="0 0 1000 1000" style="enable-background:new 0 0 1000 1000;" xml:space="preserve">
<g>
	<path d="M696.97,195.54c7.45-10.62,13.92-20.44,21.09-29.71c2.47-3.19,7.67-7.68,9.91-6.87c3.56,1.3,7.01,6.15,8.19,10.18
		c8.78,30.02,17.15,60.16,25.29,90.36c2.97,11.03-2.23,19.55-13.62,20.75c-32.58,3.46-65.23,6.33-97.9,8.84
		c-10.24,0.78-13.09-5.03-7.33-14.28c6.58-10.56,13.9-20.66,21.4-31.69c-27.93-19.25-57.57-33.02-89.66-40.27
		c-116.57-26.34-217.43,2.74-297.23,92.15c-66.15,74.11-88.42,162.79-65.64,259.33c28.73,121.74,107.2,196.25,228.54,225.82
		c2.5,0.61,5.02,1.16,7.51,1.84c17.34,4.77,26.02,18.49,22.1,34.89c-3.51,14.72-17.92,23.71-34.14,20.6
		c-50.98-9.76-98.07-29.03-140.1-59.61c-89.23-64.93-139.36-152.94-147.87-262.57c-7.78-100.35,23.49-189.29,91.52-263.61
		c74.49-81.38,168.49-118.9,278.42-115.18c60.41,2.04,116.42,20.36,167.94,52.11C688.8,190.73,692.27,192.74,696.97,195.54z"/>
	<path d="M505.58,380.28c0,30.93,0.26,61.85-0.17,92.77c-0.11,8.05,2.37,12.48,9.7,16.22c56.38,28.73,112.63,57.72,168.63,87.2
		c6.73,3.54,13.54,9.47,17.02,16.03c4.32,8.14,1.91,17.44-5.45,24.12c-8.37,7.61-17.96,8.01-27.67,3.06
		c-30.81-15.71-61.52-31.61-92.24-47.49c-34.97-18.07-69.82-36.39-104.95-54.16c-7.75-3.92-11.36-8.26-11.3-17.6
		c0.44-69.95,0.23-139.9,0.25-209.85c0-2.94-0.04-5.91,0.31-8.82c1.58-13.31,11.06-21.94,23.53-21.58
		c12.47,0.36,21.81,9.45,22.14,22.91c0.49,19.5,0.18,39.02,0.2,58.53C505.59,354.51,505.58,367.39,505.58,380.28z"/>
	<path d="M574.63,777.01c17.56,0.06,29.1,9.8,31.5,23.55c2.37,13.56-5.3,27.1-18.58,31.36c-8.03,2.57-16.37,4.48-24.71,5.7
		c-14.52,2.12-28.07-7.57-31.51-21.73c-3.41-14.06,4.56-28.61,18.89-33.06C559.3,780.01,568.76,778.38,574.63,777.01z"/>
	<path d="M853.55,486.9c0,4.05,0.27,8.12-0.05,12.14c-1.12,14.1-12.87,25.45-26.79,26.14c-13.92,0.68-26.54-8.35-28.71-22.25
		c-1.51-9.7-1.86-19.87-0.76-29.62c1.72-15.24,14.52-25.24,29.09-24.5c14.9,0.76,26.39,12.59,27.21,28.15
		C853.7,480.27,853.55,483.59,853.55,486.9z"/>
	<path d="M707.69,760.81c4.27,19.71-40.8,47.27-58.73,35.54c-16.11-10.54-19.98-33.27-4.97-45.93c7.49-6.32,16.21-11.67,25.17-15.68
		C687.35,726.59,707.71,740.79,707.69,760.81z"/>
	<path d="M837.03,382.07c0.03,17.99-8.41,29.26-20.35,32.69c-12.51,3.59-26.27-1.35-32.17-13.03c-4.44-8.78-7.91-18.28-10.27-27.84
		c-2.99-12.08,4.09-24.89,15.14-30.27c11.79-5.74,26.94-3.65,33.73,7.3C829.92,361.92,833.85,374.72,837.03,382.07z"/>
	<path d="M775.96,598.86c2.7-6.64,6.24-18.74,12.33-29.4c6.01-10.53,21.07-13.67,32.49-9.09c12.15,4.87,20.06,17.24,17.37,29.98
		c-2.11,9.97-5.48,19.93-9.93,29.09c-5.67,11.68-19.85,16.76-32.11,13.14C783.37,628.83,775.48,617.87,775.96,598.86z"/>
	<path d="M788.08,684.88c0.1,14.1-18.74,39-32.38,42.78c-11.52,3.2-23.74-0.59-30.58-10.01c-7.14-9.83-8.32-20.71-1.87-31.03
		c5.03-8.04,11.14-15.64,17.89-22.3c8.67-8.56,19.61-9.98,30.67-4.86C782.37,664.36,788.02,672.97,788.08,684.88z"/>
</g>
</svg>
